
<svg xmlns="http://www.w3.org/2000/svg" viewBox="0 0 200 200">
    <defs>
        <style>.a{fill:#4f4338;}.b{fill:#4c0808;}.c{fill:#d32f2f;}.d{fill:#65717c;}.e{fill:#475056;}.f{fill:#c9c3c1;}.g{fill:#a09993;}.h{fill:#f2efed;}.i{fill:#999fa3;}.j{fill:#f4f1ef;}.k{fill:#e2ebed;stroke:#dae9ed;stroke-miterlimit:10;opacity:0.9;}.l{fill:#627889;}.m{fill:#fff;}.n{fill:#685004;}.o{fill:#97cfe8;opacity:0.8;}</style>
    </defs>
    <path class="a" d="M109.13,152.52v0h0v0a8.92,8.92,0,0,0-5.55-4.18,17.19,17.19,0,0,0-6.66-.23c1.22,6.6,7.12,11,13.2,9.9s10-7.45,8.87-14.06a17.61,17.61,0,0,0-6.14,2.64A9.08,9.08,0,0,0,109.13,152.52Z"/>
    <polygon class="b" points="107.96 146.01 107.95 146.01 108.15 147.1 107.96 146.01"/>
    <polygon class="c" points="39.02 158.98 39.02 158.99 39.02 158.98 39.02 158.98"/>
    <path class="d" d="M22.18,48.3,11.64,49.42a4.57,4.57,0,0,0-3.42,5.43L28.09,164.92a4.49,4.49,0,0,0,5.08,3.83l61.1-8.92a4.09,4.09,0,0,1,3.62,1.22,15.49,15.49,0,0,0,13.49,3.47,15.71,15.71,0,0,0,11.38-8.16,4.27,4.27,0,0,1,3-2.46L185.89,140c2.36-.44,3.88-2.87,3.3-6.13L169.31,23.77a4.34,4.34,0,0,0-5-3.13l-9.79,2.71,2.81,4.37.61,2,18.41,99"/>
    <path class="e" d="M119.35,143.14l-.41.1c1.18,6.61-2.77,12.91-8.87,14.06s-12-3.3-13.2-9.9c-.13,0-.27,0-.4.06"/>
    <polygon class="f" points="38.64 156.88 38.64 156.88 38.64 156.88 38.64 156.88 44.72 144.81 25.15 36.42 21.89 49.39 20.79 55.32 20.64 57.21 38.64 156.88"/>
    <path class="g" d="M107.77,145l-.38-2.09c.13.67.45,2.44.56,3.08h0l-.18-1L122.19,143l-2.8.91a301.9,301.9,0,0,1,57.33-12.67c-3.85-2.45-6.86-6-10-9.38v.09C86.81,139,121.6,174.82,91.48,34.67c-3,2.26-3,2.67-6.88,1.3,20.52,141.63,40.71,95.89-39.87,108.91v-.06c-.4.82-6.26,12-6.24,12.45l.16-.39-.16.39a175.89,175.89,0,0,1,23.79-5.9,230.68,230.68,0,0,1,34.24-3.2h0"/>
    <polyline class="f" points="158.67 31.19 157.86 28.52 154.81 24.54 147.19 13.4 147.18 13.42 166.76 121.81 172.53 128.09 176.72 131.19"/>
    <path class="g" d="M121,143.15,107.78,145l.18,1,.19,1.09L108,146l-.18-1-.38-2.09.38,2.09L96.41,148l.07.2h0l.41-.06a17.19,17.19,0,0,1,6.66.23,8.92,8.92,0,0,1,5.55,4.18v0h0v0a9.08,9.08,0,0,1,3.72-5.93A17.61,17.61,0,0,1,119,144l.4-.09h0Z"/>
    <path class="g" d="M166.76,121.82,147.18,13.43C127.73,17.65,106.27,23,90.13,35.68l.2,0,18.09,100.19c2.42,11.88,11.61,1,17.13-.69,12.23-6.5,28.05-9.31,41.22-13.26Z"/>
    <path class="h" d="M166.77,121.91,147.41,14.7C128,18.91,106.75,24.07,90.59,36.63l0,.16,17.9,99.11c2.39,11.74,11.59.93,17.11-.72,12.24-6.46,28.07-9.27,41.24-13.2Z"/>
    <path class="i" d="M139.77,43.76a130.12,130.12,0,0,0-31.13,9.68c-1.55.69-4.53,3.22-5.43.58h0l-.45-2.5h0c-.12-2.14,3.95-3.79,5.57-4.37,14.76-5.3,19.88-6.63,30.32-8.85a1.56,1.56,0,0,1,1.83,1.14C140.92,40.86,141.78,43.32,139.77,43.76Z"/>
    <path class="i" d="M142.67,58.56c-9.49,2.18-19.65,4.51-28.55,8.5q-3.08,1.32-6.05,2.81a1.49,1.49,0,0,1-2.18-1h0l-.45-2.48h0a1.5,1.5,0,0,1,.81-1.57c1.87-1,3.78-1.86,5.72-2.72,9.22-4.23,19.47-6.76,29.38-8.89a1.65,1.65,0,0,1,1.86,1.36C143.48,55.93,144.35,58,142.67,58.56Z"/>
    <path class="i" d="M145.68,73.27c-11.77,2.78-24.28,5.78-34.93,11.44a1.5,1.5,0,0,1-2.18-1h0l-.45-2.47h0a1.49,1.49,0,0,1,.81-1.56C119.82,74,132,70.6,144,68.09a1.69,1.69,0,0,1,1.86,1.36C146.13,70.6,146.92,72.59,145.68,73.27Z"/>
    <path class="i" d="M148.48,88c-6.83,2.13-14.71,3.22-21.43,5.83a113.58,113.58,0,0,0-13.62,5.74,1.56,1.56,0,0,1-2.18-1h0c-.08-1.14-1.13-3.38.37-4a116.48,116.48,0,0,1,26.79-9.71l4-.91,4.06-.94a1.65,1.65,0,0,1,2.09,1.32C148.8,85.4,149.57,87.31,148.48,88Z"/>
    <path class="g" d="M86.15,36.44c-19.5-5.95-41.35-3.16-61,0L44.73,144.85v.06c13.68-1.11,29.44-4.25,43.14-2.63,5.74-.47,18.13,6.37,16.24-5.6"/>
    <path class="j" d="M44.75,145c17.38-1.74,36.11-5.1,53.48-1.32,3.59.69,7.2-.83,5.89-6.95L86.22,37.6l-.08-.12C66.68,31.63,45,34.54,25.38,37.7Z"/>
    <path class="i" d="M41.33,62.32A129.49,129.49,0,0,1,73.79,60c1.69.08,5.36,1.35,5.28-1.44h0l-.45-2.5h0c-.64-2-5-2.1-6.74-2-15.64.43-20.89,1.06-31.42,2.79a1.58,1.58,0,0,0-1.3,1.73C39.25,60,39.29,62.64,41.33,62.32Z"/>
    <path class="i" d="M43.79,77.2c9.63-1.42,19.93-3,29.63-2.47,2.23.08,4.44.21,6.64.42a1.5,1.5,0,0,0,1.69-1.71h0L81.31,71h0A1.49,1.49,0,0,0,80,69.79c-2.08-.22-4.18-.36-6.29-.46-10.09-.59-20.55.78-30.55,2.41a1.68,1.68,0,0,0-1.26,2C42.11,75,42,77.3,43.79,77.2Z"/>
    <path class="i" d="M46.12,92c12-1.7,24.7-3.45,36.62-2.05a1.52,1.52,0,0,0,1.69-1.71h0L84,85.81h0a1.46,1.46,0,0,0-1.31-1.16c-12.17-1.38-24.74-.08-36.84,2a1.73,1.73,0,0,0-1.26,2C44.76,89.71,44.72,91.85,46.12,92Z"/>
    <path class="i" d="M48.64,106.81c7.13-.5,14.86-2.36,22.06-2.36a111,111,0,0,1,14.72.39,1.58,1.58,0,0,0,1.69-1.71h0c-.32-1.1-.12-3.57-1.75-3.64a116.1,116.1,0,0,0-28.42.7l-4.07.6-4.12.61a1.69,1.69,0,0,0-1.49,2C47.44,104.51,47.38,106.57,48.64,106.81Z"/>
    <path class="i" d="M51.26,122.58c.57.55,3.87-.32,4.58-.33a121.6,121.6,0,0,1,32.47-1.44A1.52,1.52,0,0,0,90,119.08c-.36-1.09-.1-3.69-1.76-3.73a112.88,112.88,0,0,0-28.44.61c-2,.3-6.47,1-8.42,1.25a1.54,1.54,0,0,0-1.3,1.74C50.22,119.91,50.25,122.22,51.26,122.58Z"/>
    <path class="k" d="M144.14,112.15a2.61,2.61,0,0,1-2.07-1.28,10.29,10.29,0,0,0-1.52-2.07,12.26,12.26,0,0,0-16-1.32,10.53,10.53,0,0,0-1.85,1.8,2.69,2.69,0,0,1-3.51.48,2.15,2.15,0,0,1-.6-3.18,15.25,15.25,0,0,1,2.67-2.59,17.68,17.68,0,0,1,23.08,1.91,15.16,15.16,0,0,1,2.21,3,2.15,2.15,0,0,1-1.12,3A2.75,2.75,0,0,1,144.14,112.15Z"/>
    <path class="l" d="M151.83,155.68a3.59,3.59,0,0,0-4.19-1A38.07,38.07,0,0,1,132.09,158c-1.05,0-2.13,0-3.18-.13a38.34,38.34,0,1,1,35.25-17.14,3.57,3.57,0,0,0,.24,4.31l8.37,9.89-12.55,10.64ZM132.05,95.85a23.8,23.8,0,1,0,2,.08C133.37,95.87,132.71,95.85,132.05,95.85Z"/>
    <path class="m" d="M132,82.75a36.92,36.92,0,0,1,30.87,57.17,5.09,5.09,0,0,0,.34,6.1l7.41,8.74-10.27,8.7L153,154.71a5.1,5.1,0,0,0-5.95-1.35,36.87,36.87,0,0,1-14.94,3.15q-1.53,0-3.06-.12a36.88,36.88,0,0,1,3-73.64m.05,62.16a25.28,25.28,0,0,0,2.06-50.48c-.7-.06-1.4-.08-2.1-.08a25.28,25.28,0,1,0,0,50.56M132,79.75a39.88,39.88,0,0,0-3.25,79.62c1.09.1,2.2.14,3.3.14a39.68,39.68,0,0,0,16.16-3.41,2.1,2.1,0,0,1,2.44.55l7.41,8.75,1.94,2.29,2.29-1.94,10.27-8.7,2.29-1.94L173,152.82l-7.41-8.74a2.09,2.09,0,0,1-.13-2.51A39.89,39.89,0,0,0,132,79.75Zm.05,62.16a22.28,22.28,0,1,1,0-44.56c.62,0,1.24,0,1.86.07a22.28,22.28,0,0,1-1.82,44.49Z"/>
    <path class="n" d="M186.81,184.56h0a8.16,8.16,0,0,1-11.51-.95L158,163.22a3.82,3.82,0,0,1,.35-5.3l6.39-5.78a3.89,3.89,0,0,1,5.58.37l17.42,20.55A8.16,8.16,0,0,1,186.81,184.56Z"/>
    <circle class="o" cx="132.08" cy="119.65" r="25.29"/>
</svg>